Patient4_TMGait_0pt8_01_left_01_EMG.mot
version=1
nRows=27
nColumns=33
inDegrees=no
endheader
time	1LAddLong	2LGlutMax	3LGlutMed	4LIliopsoas	5LSemiMemb	6LBicFemLong	7LRecFem	8LVastMed	9LVastLat	10LGasMed	11LTibAnt	12lTibPost	13LPeroneusLong	14LSol	15LExtDigLong	16LFlexDigLong	17RAddLong	18RGlutMax	19RGlutMed	20RIliopsoas	21RSemiMemb	22RBicFemLong	23RRecFem	24RVastMed	25RVastLat	26RGasMed	27RTibAnt	28RTibPost	29RPeroneusLong	30RSol	31RExtDigLong	32RFlexDigLong
0.945	0.021362	0.037384	0.38666	0.00351	0.009003	0.009918	-0.1973	-0.001221	-0.094604	-0.3952	0.016327	-0.058594	-0.05661	0.46631	-0.010071	0.73242	-0.012207	-0.32455	-0.12192	-0.031281	0.034027	-0.10483	-0.25299	0.16022	0.11826	-0.009766	0.33081	-0.002899	-0.063171	-0.03479	0	-0.018158
0.946	0.020905	0.00473	0.44556	0.027161	-0.0177	-0.023804	-0.19867	-0.000916	-0.090332	-0.032806	0.005341	0.10819	-0.093079	0.37003	-0.00885	0.36377	-0.0177	-0.33752	-0.052338	-0.13107	0.031281	-0.096893	-0.1831	0.11688	0.16586	-0.008698	0.19836	-0.007782	0.13001	-0.012665	0	-0.011749
0.947	0.019684	0.019226	0.41687	0.012817	-0.020142	-0.036011	-0.1889	-0.003815	-0.074005	0.33493	0.001221	-0.056	-0.16022	0.2121	-0.019531	-0.000916	-0.039978	-0.32196	-0.19134	-0.092926	0.054169	-0.13458	-0.32822	0.12314	0.15243	-0.004425	-0.12802	-0.003815	0.24429	-0.044403	-0.001068	-0.011139
0.948	0.030518	-0.017242	0.40756	0.014496	-0.02121	-0.046692	-0.17792	0.009308	-0.028687	0.73532	0.016022	0.010681	-0.15717	0.37354	-0.05249	-0.2803	-0.009918	-0.28976	-0.24765	-0.00473	0.035553	-0.18158	-0.33234	0.13214	0.083923	-0.002289	-0.35553	-0.005341	0.28549	-0.10101	0.003967	0.000916
0.949	0.024567	-0.02182	0.40985	0.003815	0.030212	-0.009308	-0.1593	-0.006714	-0.023193	0.87753	0.007019	0.059967	-0.11475	0.3122	-0.032196	-0.015259	-0.023651	-0.32379	-0.22568	0.029144	0.079346	-0.20538	-0.23468	0.11704	0.000305	-0.002747	-0.44861	-0.007477	0.19669	-0.087433	0.001373	-0.002441
0.95	0.01358	0.015106	0.40054	0.010223	0.042114	0.080566	-0.16373	0.007477	-0.021362	0.53619	-0.007324	0.21057	0.1709	-0.27451	-0.025787	0.22934	-0.02594	-0.33264	-0.078583	-0.048981	0.10864	-0.20645	-0.12238	0.082703	-0.12177	-0.010834	-0.35019	-0.000305	0.10483	-0.096283	0.001068	-0.002747
0.951	0.014496	0.033875	0.41657	0.001831	0.023499	0.14191	-0.13626	0.011139	-0.041962	0.026703	-0.007477	-0.20157	0.2887	-0.25314	0.021515	0.50339	-0.016022	-0.13718	-0.09201	-0.11139	0.098419	-0.1799	-0.28153	0.10895	-0.13412	-0.006256	-0.47684	-0.003052	0.061188	-0.15762	0.001526	-0.012054
0.952	0.019073	0.048523	0.39978	0.006866	0.003204	0.079041	-0.11566	0.00885	-0.050659	-0.12512	-0.002594	-0.18601	0.2179	0.048218	0.072479	-0.31174	-0.050659	0.063782	-0.12085	0.001831	0.006561	-0.14801	-0.61249	0.004578	-0.014954	-0.002289	-0.50995	-0.007019	0.023346	-0.24765	-0.001526	-0.002747
0.953	0.027313	0.10208	0.37048	0.007629	0.010071	0.014191	-0.075989	0.001068	-0.050812	0.014801	-0.001526	0.011444	0.10086	0.63492	0.074463	0.54275	-0.06073	0.1268	-0.13107	0.088501	-0.069275	-0.10681	-0.66589	-0.11505	0.31372	-0.004883	-0.91095	-0.007782	-0.032959	-0.26108	-0.001373	-0.005188
0.954	0.02533	0.088043	0.3772	0.003967	0.014038	-0.02243	-0.066833	-0.005341	-0.051575	-0.25024	0.003204	-0.071869	-0.006561	-0.054321	0.038757	0.009613	-0.022125	0.15595	-0.10696	0.089111	-0.010681	-0.16495	-0.4245	-0.060577	1.0304	0.002899	-0.28717	-0.006866	-0.079193	-0.15625	-0.001984	-0.002747
0.955	0.027161	0.062866	0.36285	-0.002136	0.014801	-0.057983	-0.04425	0.003204	-0.054016	-0.15015	-0.005341	0.11261	-0.10315	-0.96268	0.019989	0.058746	0.034485	0.1973	-0.087128	0.041199	0.014801	-0.21912	-0.24857	-0.20584	1.058	-0.011292	-0.13947	-0.005646	0.0354	-0.040131	0.000763	-0.01236
0.956	0.001221	0.04776	0.39276	-0.006561	0.027313	-0.046997	-0.048523	0.002747	-0.050812	0.56305	-0.013885	0.30121	-0.024872	-0.74158	0.083466	0.11536	0.049896	0.27252	-0.10101	-0.002899	0.028534	-0.22553	-0.16403	-0.25497	0.63431	-0.013275	-0.14893	-0.00885	0.057678	0.058441	-0.000458	-0.011597
0.957	-0.017853	0.057983	0.3241	-0.008392	0.009308	-0.005493	-0.046082	0.002136	-0.056763	0.39612	-0.017242	-0.24811	0.14313	-0.2684	0.09079	-0.16998	0.057831	0.28564	-0.067444	-0.021667	0.032349	-0.24429	-0.10407	-0.177	0.11078	-0.013733	0.16113	-0.003052	-0.021515	0.12116	-0.003052	-0.00946
0.958	0.044098	0.074921	0.2945	0.000763	-0.023346	0.013275	-0.037689	-0.002441	-0.042114	-0.3122	-0.016327	-0.009308	0.12161	0.30518	0.027771	-0.46692	0.058899	0.12772	-0.082245	-0.026093	0.037994	-0.24963	-0.027466	-0.27451	-0.18906	-0.014343	0.27481	-0.002441	-0.079193	0.17578	0.000153	-0.009308
0.959	0.034332	0.037384	0.3598	0.004578	-0.057068	0.014038	-0.017395	0.001068	-0.040741	-0.81451	-0.014954	0.036926	0.13031	0.46738	-0.018158	-0.22842	0.053864	-0.013428	-0.19211	-0.056763	0.053101	-0.22675	-0.066681	-0.27237	-0.18662	-0.018768	0.17288	-0.00351	-0.038147	0.23956	0.002136	-0.007019
0.96	0.016632	0.007935	0.41077	0.006866	-0.054932	-0.01236	0.005341	0.013123	-0.037537	-0.69076	-0.008698	0.06546	0.17471	0.87158	-0.01709	-0.085754	0.069122	-0.033417	-0.27313	-0.056152	0.027161	-0.22842	-0.13382	-0.19959	-0.15121	-0.012512	-0.2829	-0.007629	0.016022	0.11993	0.001068	-0.009613
0.961	0.020142	0.026398	0.41184	0.012512	-0.001678	-0.006409	0.02182	0.002594	-0.030823	-0.63217	-0.003052	-0.15457	0.16113	0.32654	-0.058594	0.10666	0.086212	-0.10635	-0.23651	-0.046234	0.008392	-0.19104	-0.17136	-0.013123	-0.22278	-0.00824	-1.0365	-0.005341	0.094299	0.081635	0.003662	-0.007935
0.962	0.021667	0.008087	0.39307	-0.002289	0.016174	0.030365	-0.001068	-0.003357	-0.020752	-0.52704	0.007019	-0.078278	0.081635	-0.51514	-0.081177	-0.0354	0.078735	-0.15808	-0.31342	-0.010681	-0.053101	-0.17517	-0.044861	0.036163	-0.32288	-0.01297	-0.77438	-0.002594	-0.024109	-0.049896	0.000458	-0.010071
0.963	0.029449	-0.014801	0.38635	0.002747	-0.041351	0.003815	0.013733	-0.00473	-0.025024	-0.3273	0.012512	-0.000916	0.032959	-0.20142	-0.039978	-0.10468	0.079803	-0.12161	-0.38238	0.005798	-0.17975	-0.12848	0.084534	-0.052795	-0.28366	-0.001221	-0.25421	-0.007477	0.059967	-0.16769	-0.001221	-0.005951
0.964	0.021667	0.016479	0.3923	0.010376	-0.037994	-0.04364	0.045319	0.004425	-0.035706	-0.18555	0.009308	-0.037842	0.065613	0.18906	-0.02655	-0.059509	0.08606	-0.064087	-0.50034	0.027618	-0.30701	-0.067139	0.076294	-0.015411	-0.2771	-0.015259	-0.073395	-0.003815	0.013885	-0.19959	-0.000305	-0.011444
0.965	0.009003	0.040741	0.40787	0.008087	-0.027466	-0.041962	0.040588	0.001678	-0.059204	-0.24399	0.018311	-0.019836	0.14862	-0.14236	0.025177	-0.029449	0.061035	-0.062103	-0.41809	0.032806	0.11841	-0.059052	-0.065765	0.12207	-0.32913	-0.011597	0.0354	-0.000916	-0.039825	-0.17151	-0.001373	-0.003052
0.966	0.020142	0.026398	0.354	0.00473	-0.001373	-0.089874	0.045166	0.001526	-0.041046	-0.51971	0.014801	-0.017395	0.18662	-0.16327	0.059662	0.14175	0.027161	-0.16419	-0.38269	0.02121	0.22446	-0.096436	-0.088654	0.24429	-0.33859	0.000153	0.20126	-0.002441	-0.001373	-0.088959	-0.001678	-0.01236
0.967	0.042114	0.007324	0.31143	0.012512	0.023804	-0.1181	0.010376	-0.00412	-0.026245	-0.62988	0.017395	-0.103	0.24475	0.28961	0.088959	0.10117	-0.007324	-0.22888	-0.17303	0.018616	0.18021	-0.11643	-0.035553	0.13306	-0.38605	-0.002747	0.36636	-0.003052	0.21698	-0.065918	0.002747	-0.009003
0.968	0.049133	0.028839	0.31494	0.013428	0.010834	-0.0177	0.030518	-0.001678	-0.027771	-0.35294	0.011749	0.52277	0.1651	0.52368	0.076141	-1.0046	0.036163	-0.28915	-0.2713	0.012207	0.18616	-0.12863	-0.062256	-0.037079	0.003052	-0.002899	0.21484	-0.000763	0.35873	-0.11032	-0.001221	-0.004272
0.969	0.039673	0.076904	0.31052	0.017395	0.051117	0.036621	0.016479	-0.008698	-0.026855	0.32059	0.001678	0.17487	-0.041656	0.97321	0.088196	-0.23178	0.033569	-0.36575	-0.57007	0.01236	0.26077	-0.12909	-0.015869	-0.15915	0.28625	-0.001678	0.19852	0.000458	0.16434	-0.045471	0.003662	-0.009003
0.97	0.023651	0.070343	0.29037	0.002899	0.047913	0.081024	0.006561	-0.002136	-0.035706	0.021973	-0.003815	0.1236	-0.16892	1.4915	0.078125	1.2454	0.002136	-0.31143	-0.61325	-0.034027	0.27283	-0.16449	-0.011749	-0.18265	0.24246	0.001526	0.1062	-0.005035	0	0.1535	-0.003662	-0.008545
0.971	0.03006	0.04837	0.28259	-0.002747	0.027161	0.12253	-0.022278	0.003815	-0.042419	-0.069733	-0.00412	-0.001373	-0.16937	0.95459	-0.009766	0.11963	-0.017242	-0.23407	-0.49911	-0.059509	0.10269	-0.20935	-0.006561	-0.1088	0.082092	-0.00885	-0.007477	-0.001831	-0.298	0.36636	-0.001831	-0.003815
